<svg xmlns="http://www.w3.org/2000/svg" width="122" height="33" fill="none"><path fill="#373737" d="M13.424.5H0v32.083L13.424.5zm9.446 0h13.407v32.083L22.87.5zm-4.723 11.825 8.545 20.258h-5.606l-2.554-6.45h-6.253l5.868-13.808zm40.031 8.578 1.583 4.536c.052.113.13.166.27.166h3.044c.166 0 .193-.079.166-.245L56.953 7.907c-.026-.14-.052-.166-.192-.166h-3.778c-.105 0-.166.079-.166.192-.053.918-.132 1.198-.245 1.469l-5.606 15.932c-.026.192.035.27.192.27h2.72c.166 0 .245-.052.306-.218l1.496-4.483h6.498zm-5.633-2.963c.822-2.482 1.907-5.663 2.344-7.481h.026c.543 1.905 1.82 5.68 2.397 7.481h-4.767zm18.78 7.936c1.636 0 3.376-.297 5.143-1.058.14-.052.166-.113.166-.244a18.178 18.178 0 0 1-.114-1.74V6.404c0-.105 0-.157-.13-.157h-2.966c-.113 0-.166.052-.166.192v5.567a9.744 9.744 0 0 0-1.172-.079c-4.784 0-7.722 3.155-7.722 7.097 0 4.57 3.017 6.852 6.961 6.852zm1.933-3.042c-.49.158-1.032.219-1.583.219-2.169 0-3.944-1.224-3.944-4.195 0-2.63 1.828-4.186 4.25-4.186.49 0 .919.052 1.277.192v7.97zm12.834-10.907c-4.084 0-6.612 3.13-6.612 6.992 0 3.452 2.012 6.957 6.55 6.957 3.84 0 6.534-2.823 6.534-7.044 0-3.724-2.283-6.905-6.472-6.905zm-.166 2.745c2.309 0 3.288 1.983 3.288 4.247 0 2.797-1.443 4.186-3.122 4.186-2.073 0-3.297-1.739-3.297-4.247 0-2.578 1.303-4.186 3.13-4.186zm9.703-8.425c-.114 0-.192.052-.192.192v18.598c0 .079.078.218.192.245a13.77 13.77 0 0 0 4.075.594c4.032 0 7.95-2.5 7.95-7.534 0-3.644-2.501-6.415-6.419-6.415-.901 0-1.74.14-2.475.385l-.035-5.847c0-.192-.052-.218-.245-.218h-2.85zm8.676 12.427c0 3.015-2.064 4.431-4.294 4.431-.464 0-.875-.026-1.251-.14V15.03c.428-.166.944-.306 1.898-.306 2.151 0 3.647 1.363 3.647 3.95zm14.414.979c1.329 0 2.422-.026 2.798-.113.14-.027.193-.08.219-.193.079-.297.114-.917.114-1.678 0-2.587-1.557-5.742-5.58-5.742-4.11 0-6.393 3.348-6.393 7.123 0 3.347 1.767 6.826 6.717 6.826 1.854 0 3.052-.297 4.084-.787.105-.052.157-.14.157-.297v-2.264c0-.13-.079-.157-.157-.104-1.032.437-2.152.655-3.376.655-2.772 0-4.032-1.53-4.11-3.426h5.527zm-5.528-2.342c.219-1.329 1.059-2.77 2.939-2.77 2.073 0 2.615 1.739 2.615 2.525v.219c-.114.026-.464.026-1.496.026h-4.058z"/></svg>