<svg xmlns="http://www.w3.org/2000/svg" width="94" height="32" fill="none"><path fill="#373737" d="M36.097 27.46c-3.498-2.253-8.245-2.648-15.9-.524-8.162 1.917-10.883 3.147-14.456.679-1.373-1.213-1.865-3.165-1.498-5.976.853-4.584 3.156-8.995 7.248-13.888 2.284-2.545 4.403-4.73 7.2-5.607 2.145-.55 1.944 1.135 1.685 1.376-.274 0-.734.043-1.09.275-.288.224-1.08.946-1.122 1.918-.061 1.487 1.478 1.178 2.142.361.716-.92 1.774-2.683.942-4.325-.35-.585-.952-.99-1.7-1.127-2.561-.146-4.947 1.075-7.15 2.425-4.815 3.345-8.667 7.98-10.846 13.054-1.257 3.061-2.393 7.446-.69 11.015 1.318 2.477 4.054 3.792 7.318 3.517 2.29-.24 5.057-.98 6.919-1.427 1.862-.447 11.392-3.723 14.523 1.978 0 0 1.042-2.021 3.644-2.064 2.14-.198 5.226.619 7.474 2.27-.75-1.126-2.872-2.786-4.643-3.93z"/><path fill="#373737" d="M21.168 8.327c-1.782-1.17-5.365 1.066-8.234 4.901-2.624 3.44-3.757 7.439-2.524 9.287 1.834 2.176 5.24-.988 6.687-2.682l.187-.198c.985-1.058 1.746-2.33 2.482-3.552 0 0 .677-1.118.71-1.17a15.96 15.96 0 0 0 1.49-.36c-.009.025-2.173 3.663-1.952 5.468.068.551.016 2.563 1.98 3.174 2.619.439 4.71-1.591 6.554-3.397 0 0 .315-.3.492-.472l-.103.42c-.767 2.666.266 3.225.913 3.432 1.953.568 4.287-2.27 4.294-2.27-.06.893-.237 1.633.705 2.226.89.319 1.79-.166 2.474-.622 2.465-1.737 4.45-4.456 6.054-6.806h-1.023c-.012 0-2.524 3.641-4.156 4.433-.002 0-.299.152-.47.031-.212-.18-.128-.556.003-.822.008-.017 6.298-10.927 6.298-10.927h-2.97s-.324.525-.35.56c-.02-.018-.068-.108-.101-.151-1.84-2.546-6.007 1.37-9.144 5.91-1.208 1.746-2.746 3.711-4.34 5.13 0 0-2.363 2.165-3.372.61-.369-.654-.255-1.61-.047-2.237 1.175-3.345 3.2-6.381 5.504-8.213.65-.507 1.357-.654 1.708-.439.334.199.388.688.177 1.024-.537-.017-.967.146-1.316.507-.689.722-.928 1.419-.71 2.072 1.064 1.514 3.185-1.479 3.083-3.302-.037-.653-.386-1.272-.906-1.574-.776-.464-1.959-.344-2.725.027-1.025.386-2.647 1.736-3.595 2.785-1.192 1.316-3.237 2.778-3.876 2.614.21-.559 1.936-4.093.12-5.417zm14.319 5.228c.578-.8 2.26-2.94 2.67-3.302 1.378-1.213 1.93-.679 1.977-.3A271.891 271.891 0 0 1 35.9 17.27c.002-.008-.447.68-.447.68-.631.962-1.266 1.788-2.302 2.364-.147.043-.39.06-.553-.06-.195-.13-.272-.344-.25-.568.062-.74.815-3 3.138-6.13zM19.33 14.94s-.026.077-.038.103c-.004 0-1.295 2.106-1.295 2.106-.78 1.04-1.753 2.348-2.97 2.976-.36.12-.859.198-1.113-.12-.538-.645-.26-1.54-.035-2.262l.08-.258c.646-1.754 1.672-3.302 2.67-4.738a.13.13 0 0 1 .05-.017c.003.008.007.008.009.026.626 1.203 1.801 1.762 2.68 2.02.005 0 .01.009.01.026 0 .026-.014.06-.048.138zm1.224-2.485c-.006.017-.575 1.324-.575 1.324-.083.069-.213.034-.362 0l-.256-.043c-.803-.25-1.408-.783-1.595-1.42-.258-1.237.8-2.21 1.266-2.562.448-.31 1.143-.473 1.546-.154.25.292.344.67.344 1.083 0 .56-.172 1.187-.368 1.772zm37.546 3.99c-.287-.62-.966-1.015-1.69-.972-2.354.215-4.655 2.15-5.863 4.927-.634 1.428-.98 2.606-1.207 4.48.731-.842 2.224-2.227 3.917-2.983 0 0 .23-1.798 1.406-3.397.444-.663 1.334-1.729 2.333-1.445.873.293.566 2.709-.594 5.047-.858 1.72-2.172 3.44-3.501 4.627-1.175.998-2.914 2.201-4.435 1.273-.958-.567-1.447-1.754-1.344-3.285.458-4.342 2.435-8.04 5.264-12.254 2.916-3.912 6.132-7.928 10.463-10.07.884-.447 1.702-.55 2.409-.275 0 0-4.066 2.236-6.004 6.372-.493 1.05-1.179 2.468-.488 3.724.36.653 1.001.705 1.517.67 2.376-.55 3.91-2.769 5.165-4.798.727-1.54 1.373-3.07 1.373-4.773 0-.206-.01-.48-.028-.687 1.135-.602 3.462.464 3.462.464 1.82.602 5.692 3.569 6.998 4.136.637-.74 1.685-1.857 2.274-2.416l-.853-.525c-1.367-.834-2.811-1.625-4.233-2.407-3.229-1.763-5.857-1.144-7.195-.662-.525.189-1.006.352-1.006.352-.992-1.083-2.62-.98-3.82-.688-4.314 1.238-8.319 4.256-12.613 9.494-3.157 4.101-5.115 7.644-6.159 11.144-.805 2.356-1.05 5.822.915 7.877 1.67 1.745 3.883 1.367 5.446.74 3.388-1.669 6.432-5.263 7.949-9.4.366-1.23.772-2.966.142-4.29zm7.788-12.96c-.448 5.143-4.445 8.162-5.434 8.402-.6.12-1.622-.146-.71-2.304 1.345-2.907 3.64-5.375 6.104-6.64.06.216.058.353.04.543zm23.712.654c-2.15 1.221-4.38 2.012-7.077 1.737a41.384 41.384 0 0 0-2.147 2.606c3.787.963 7.801-1.178 10.04-3.216C92.785 3.21 94 .622 94 .622s-1.776 2.03-4.4 3.517zm-42.226 6.867 1.591-2.585h-2.82l-1.591 2.585h2.82z"/><path fill="#373737" d="M82.511 27.7c-.303.206-.729.047-.57-.426.397-1.204 1.975-3.657 1.975-3.657l4.394-7.793H85.3c-.143.235-.45.774-.45.774-.138-.232-.555-.747-.726-.859-.736-.465-1.814-.245-2.559.176-3.236 1.893-5.596 5.63-7.458 8.546 0 0-1.96 3.24-3.048 3.482-.85.069-.762-1.076-.725-1.342.328-1.927 1.09-3.758 1.86-5.418a41.61 41.61 0 0 0 4.967-4.058c3.517-3.363 6.483-7.173 6.916-8.024 0 0-.469.095-1.023.112-2.706 3.775-8.244 9.261-9.923 10.078.744-1.789 5.55-10.328 9.638-14.412l.644-.62c.995-.971 2.026-1.969 2.83-2.132.084-.009.194 0 .288.198.036.757-.246 1.316-.569 1.952l-.453.929s.642-.12 1.063-.259c.489-.92 1.03-1.952.83-3.181a.913.913 0 0 0-.727-.765c-1.22-.233-2.55.67-3.619 1.401l-.043.026c-5.5 4.308-10.143 10.517-14.203 18.996-.294.223-1.43.49-1.624.36.401-.825.906-1.934 1.158-3.138a8.35 8.35 0 0 0 .085-1.04c0-.74-.178-1.437-.84-1.918-.778-.387-1.739-.207-2.387.086-2.902 1.204-5.07 4.18-6.636 6.63-.842 1.556-1.68 3.224-1.913 5.133-.164 1.496.17 2.46 1.02 2.941.875.447 1.975-.017 2.408-.24 2.94-1.549 4.994-4.653 6.613-7.49.065-.01.949-.035 1.618-.207.008 0 .012 0 .027.009-.038.128-.384 1.16-.384 1.16-1.026 3.01-1.5 5.057-.531 6.27 1.385 1.71 3.678-.06 5.544-2.4-.4 2.803 1.052 3.242 2.16 3.027 1.272-.344 2.69-1.703 3.347-2.399-.21.817-.153 2.279 1.004 2.425.793.147 1.387-.285 2.073-.655 2.464-1.341 5.414-5.812 6.18-7.104h-1.004c-1.089 1.645-2.474 3.802-4.217 4.826zm-22.115-.3c-.157-.232-.208-.486-.214-.76-.03-1.687 1.785-4.706 3.065-6.351h.003c.536 1.175 1.752 1.93 2.485 2.248-.91 2.03-4.036 6.377-5.34 4.863zm5.853-5.77c-.087.06-1.619-.456-1.915-1.874-.251-1.222.59-2.177 1.404-2.658.35-.275.875-.37 1.261-.232.359.24.456.671.456 1.135 0 .284-.038.576-.071.843l-.008.06a11.448 11.448 0 0 1-1.127 2.726zm12.29 5.228-.29.258c-.414.37-.839.765-1.352.568-.142-.052-.242-.24-.266-.388-.023-1.057.453-2.037.915-2.992l.118-.25c1.329-2.218 2.873-4.832 5.142-6.646.382-.276.797-.508 1.234-.327.101.095.218.258.218.421 0 .052-.046.19-.072.232-.634 1.024-1.237 2.099-1.824 3.13-1.146 2.039-2.336 4.145-3.823 5.994z"/></svg>