<svg xmlns="http://www.w3.org/2000/svg" width="155" height="44" fill="none"><g fill="#373737" clip-path="url(#a)"><path d="M6.264 27.984c-.279-.834-.417-1.886-.417-3.3 0-1.416.138-2.47.417-3.302.777-2.386 2.837-3.69 5.533-3.69 2.003 0 3.589.805 4.647 2.081.081.11.11.277-.028.388l-1.752 1.526c-.14.111-.278.084-.39-.055-.668-.748-1.363-1.166-2.476-1.166-1.196 0-2.113.583-2.503 1.748-.221.668-.278 1.444-.278 2.47 0 1.026.056 1.83.278 2.496.39 1.137 1.307 1.72 2.503 1.72 1.113 0 1.808-.417 2.476-1.164.112-.14.25-.14.39-.03l1.752 1.527c.137.11.11.25.028.388-1.058 1.25-2.643 2.053-4.647 2.053-2.696-.001-4.756-1.306-5.533-3.69zm60.768 0c-.278-.834-.416-1.886-.416-3.3 0-1.416.138-2.47.416-3.302.78-2.386 2.837-3.69 5.534-3.69 2.003 0 3.59.805 4.646 2.081.082.11.111.277-.03.388l-1.751 1.526c-.14.111-.277.084-.389-.055-.667-.748-1.363-1.166-2.476-1.166-1.195 0-2.113.583-2.502 1.748-.223.668-.277 1.444-.277 2.47 0 1.026.054 1.83.277 2.496.389 1.137 1.307 1.72 2.502 1.72 1.113 0 1.81-.417 2.476-1.164.112-.14.25-.14.389-.03l1.752 1.527c.14.11.111.25.029.388-1.057 1.25-2.643 2.053-4.646 2.053-2.697-.001-4.754-1.306-5.534-3.69zm70.235 3.385c-.167 0-.278-.11-.278-.278V23.38c0-1.72-.863-2.914-2.533-2.914-1.612 0-2.558 1.193-2.558 2.914v7.71c0 .168-.112.279-.277.279h-2.56c-.167 0-.279-.11-.279-.278V23.38c0-1.72-.862-2.914-2.529-2.914-1.613 0-2.56 1.193-2.56 2.914v7.71c0 .168-.111.279-.278.279h-2.559c-.168 0-.277-.11-.277-.278V18.275c0-.167.109-.278.277-.278h2.559c.167 0 .278.11.278.278v.97h.028c.585-.832 1.753-1.553 3.532-1.553 1.586 0 2.865.637 3.671 1.775h.028c1.029-1.108 2.364-1.775 4.284-1.775 3.114 0 4.867 2.108 4.867 4.966v8.432c0 .168-.112.279-.279.279h-2.557zm6.701 4.991c-.166 0-.278-.111-.278-.278v-2.219c0-.166.112-.279.278-.279h.501c1.056 0 1.586-.469 2.003-1.58l.39-1.137-4.896-12.594c-.056-.167.055-.278.223-.278h2.753c.166 0 .279.111.333.278l3.033 8.738h.054l2.894-8.738c.055-.167.167-.278.332-.278h2.641c.169 0 .281.111.223.278l-5.116 13.926c-1.168 3.162-2.281 4.16-4.505 4.16l-.863.001zM19.004 27.984c-.306-.945-.445-1.832-.445-3.302 0-1.468.139-2.356.445-3.297.75-2.33 2.807-3.69 5.532-3.69 2.696 0 4.754 1.36 5.505 3.69.304.941.444 1.83.444 3.297 0 1.47-.14 2.357-.444 3.302-.752 2.329-2.809 3.688-5.505 3.688-2.725 0-4.781-1.359-5.532-3.688zm8.034-.832c.223-.692.278-1.331.278-2.47 0-1.134-.055-1.745-.278-2.465-.389-1.109-1.251-1.748-2.502-1.748-1.25 0-2.141.64-2.53 1.748-.22.72-.277 1.331-.277 2.466 0 1.138.056 1.777.278 2.469.388 1.11 1.28 1.746 2.529 1.746 1.25 0 2.113-.636 2.502-1.746zm57.625-9.46c-2.197 0-3.67.527-4.756 1.304-.11.085-.138.221-.054.36l1.026 1.832c.087.139.251.167.391.055.64-.498 1.557-.916 3.06-.916 2.191 0 2.935.657 2.973 2.1v.018l.001.104v4.328c0 1.525-1.056 2.273-2.974 2.273-1.503 0-2.309-.554-2.309-1.663 0-1.249.89-1.805 2.892-1.805l.609.001c.167 0 .279-.111.279-.276v-1.779c0-.166-.112-.276-.279-.276h-1.109c-3.309 0-5.369 1.333-5.369 4.244 0 2.802 2.06 4.078 4.506 4.078 1.89 0 3.142-.638 3.782-1.553h.027v.97c0 .168.113.279.279.279h2.335c.168 0 .28-.11.28-.278v-8.739c0-3.273-1.501-4.66-5.59-4.66zM51.436 23.35c-.072 0-.12.047-.12.119v2.092c0 .071.048.12.12.12h6.887c.195 0 .306-.11.306-.276 0-2.166-.14-3.081-.445-4.024-.752-2.274-2.753-3.689-5.507-3.689-2.67 0-4.727 1.36-5.479 3.69-.276.86-.445 1.914-.445 3.3 0 1.388.195 2.413.475 3.274.75 2.33 2.752 3.716 5.588 3.716 2.475 0 4.367-.943 5.506-2.274.11-.138.11-.277-.028-.389l-1.639-1.442c-.14-.11-.279-.082-.419.055-.666.722-1.64 1.277-3.141 1.277-1.5 0-2.559-.72-3.004-2.024a3.234 3.234 0 0 1-.158-.582 10.169 10.169 0 0 1-.161-1.921c.022-.761.066-1.247.175-1.865l.005-.024.003-.018c.026-.145.063-.282.108-.418.361-1.082 1.362-1.72 2.643-1.72 1.252 0 2.251.638 2.613 1.72.112.335.166.666.166 1.139 0 .11-.055.165-.166.165h-3.654l-.229-.001zM44.17 12.506h-2.554c-.168 0-.28.11-.28.275V25.42h-.013c-.03.764-.114 1.267-.263 1.738-.361 1.107-1.223 1.716-2.5 1.716-1.25 0-2.11-.61-2.472-1.716-.194-.61-.276-1.274-.276-2.493 0-1.218.082-1.884.276-2.492.356-1.086 1.188-1.699 2.397-1.723h1.09a.11.11 0 0 0 .088-.114l.014-2.532a.11.11 0 0 0-.102-.116l-.87-.003H37.68c-2.238.024-3.877 1.102-4.564 3.211-.333 1.026-.472 1.97-.472 3.77 0 1.799.139 2.741.472 3.765.694 2.134 2.36 3.214 4.637 3.214 1.806 0 2.917-.664 3.555-1.58h.027v.998c0 .167.111.277.28.277h2.553c.167 0 .279-.11.279-.277V12.781c0-.165-.11-.275-.277-.275zm66.965 10.844c-.071 0-.12.047-.12.119v2.092c0 .071.049.12.12.12h6.888c.195 0 .306-.11.306-.276 0-2.166-.139-3.081-.444-4.024-.752-2.274-2.754-3.689-5.507-3.689-2.67 0-4.727 1.36-5.48 3.69-.276.86-.444 1.914-.444 3.3 0 1.388.195 2.413.474 3.274.75 2.33 2.752 3.716 5.588 3.716 2.475 0 4.368-.943 5.507-2.274.111-.138.111-.277-.028-.389l-1.64-1.442c-.139-.11-.278-.082-.417.055-.667.722-1.64 1.277-3.143 1.277-1.5 0-2.557-.72-3.003-2.024a3.225 3.225 0 0 1-.157-.582 10.019 10.019 0 0 1-.162-1.921 11.338 11.338 0 0 1 .183-1.907 3.17 3.17 0 0 1 .108-.418c.361-1.082 1.362-1.72 2.643-1.72 1.252 0 2.252.638 2.613 1.72.111.335.167.666.167 1.139 0 .11-.056.165-.167.165h-3.654l-.231-.001zm-7.136-10.844h-2.559c-.167 0-.278.11-.278.276v12.657h-.014c-.031.766-.115 1.269-.264 1.74-.362 1.11-1.226 1.72-2.503 1.72-1.25 0-2.112-.61-2.475-1.72-.194-.61-.279-1.275-.279-2.496 0-1.22.084-1.887.279-2.496.355-1.087 1.19-1.696 2.4-1.72h1.092c.167 0 .279-.11.279-.275v-2.223c0-.166-.112-.277-.279-.277h-1.897c-2.241.023-3.882 1.104-4.57 3.216-.334 1.028-.472 1.972-.472 3.774s.138 2.747.472 3.772c.695 2.136 2.365 3.218 4.644 3.218 1.81 0 2.921-.664 3.561-1.581h.027v.998c0 .168.111.278.279.278h2.559c.166 0 .278-.11.278-.278V12.782c-.002-.166-.114-.276-.28-.276zM66.824 35.15v2.528c0 .166.111.276.279.276h9.483c.17 0 .281-.11.281-.276V35.15c0-.164-.112-.275-.281-.275h-9.483c-.168 0-.28.111-.28.275z"/><path d="m64.416 5.96-.01-.013-.002-.001a.28.28 0 0 0-.2-.075H.279a.37.37 0 0 0-.06.005l-.017.004-.037.01a.017.017 0 0 0-.006.004c-.099.04-.16.131-.16.252v31.53a.264.264 0 0 0 .118.232.3.3 0 0 0 .162.043h63.924c.094 0 .17-.035.219-.097a.275.275 0 0 0 .06-.178V6.145a.275.275 0 0 0-.066-.186zM3.392 34.874a.374.374 0 0 1-.057-.004l-.017-.005-.037-.01-.006-.003c-.098-.04-.158-.13-.159-.25V9.222c0-.121.06-.211.16-.252.002 0 .004-.002.005-.003l.054-.015a.408.408 0 0 1 .058-.004h57.695a.4.4 0 0 1 .058.004l.016.006a.164.164 0 0 1 .038.01l.006.002c.1.04.16.131.16.253v25.378c-.001.12-.062.211-.16.25-.002.001-.003.003-.005.003a.272.272 0 0 1-.038.01c-.006.002-.01.005-.016.006a.323.323 0 0 1-.057.004H3.392z"/></g><defs><clipPath id="a"><path fill="#fff" d="M0 0h155v44H0z"/></clipPath></defs></svg>