<svg xmlns="http://www.w3.org/2000/svg" width="134" height="24" fill="none"><path fill="#373737" d="M134 16.954V8.056h-8.744L134 16.954zM3.428 7.146v2.032C4.471 7.237 6.201 6.6 7.84 6.6c2.147 0 3.697 1.031 4.591 2.73.895-1.669 2.624-2.73 4.95-2.73 3.398 0 5.485 2.154 5.485 6.189v10.133h-3.429v-9.526c0-2.428-1.043-3.61-2.981-3.61-2.176 0-3.31 1.577-3.31 4.307v8.83H9.719v-9.497c0-2.457-1.073-3.64-2.921-3.64-2.206 0-3.31 1.79-3.369 4.52v8.616H0V7.146h3.428zm26.592 6.826c4.472-.789 5.158-.91 5.158-2.366 0-1.548-1.401-2.246-3.22-2.246-2.206 0-3.756 1.275-3.756 3.52l-3.04-1.214C25.607 8.693 28.35 6.6 31.957 6.6c4.025 0 6.559 1.941 6.559 5.46v7.737l.537 3.125h-3.041l-.656-1.942c-1.133 1.578-3.07 2.37-5.217 2.37-3.1 0-5.277-1.73-5.277-4.55 0-2.704 2.027-4.252 5.157-4.828zm.895 6.736c2.802 0 4.263-1.79 4.263-4.127v-1.365c-.477.425-1.371.546-4.203 1.092-1.461.304-2.505.91-2.505 2.306 0 1.183.895 2.093 2.445 2.093zM46.268 1.2v5.946h4.412v3.003h-4.412v7.676c0 1.942.745 2.336 2.296 2.336.632-.023 1.26-.104 1.878-.242v3.067c-.507.212-1.878.33-2.385.33-3.369 0-5.217-1.425-5.217-5.036v-8.13h-2.773V7.145h2.773V3.808L46.268 1.2z"/><path fill="#373737" d="M56.673 1.2v5.946h4.412v3.003h-4.412v7.676c0 1.942.745 2.336 2.295 2.336.632-.023 1.26-.104 1.878-.242v3.067c-.506.212-1.878.33-2.385.33-3.368 0-5.217-1.425-5.217-5.036v-8.13h-2.772V7.145h2.772V3.808L56.673 1.2zm20.6 13.53c-.003.467-.033.933-.09 1.396H65.676c.358 3.004 2.117 4.308 4.472 4.308 2.176 0 3.577-.88 4.412-2.821l2.474 2.245c-1.46 2.397-4.114 3.52-6.976 3.52-4.889 0-7.99-3.429-7.99-8.314 0-4.884 3.28-8.464 7.782-8.464 4.56 0 7.423 3.307 7.423 8.13zm-3.697-1.152c0-2.428-1.401-4.036-3.786-4.036-2.027 0-3.667 1.305-4.084 4.036h7.87zm9.272-6.432v2.488c1.133-2.276 2.981-2.852 4.412-2.852a3.43 3.43 0 0 1 1.371.212v3.459a5.621 5.621 0 0 0-1.758-.273c-2.385 0-4.025 1.638-4.025 5.127v7.615H79.42V7.146h3.428zm21.316 7.584c-.003.467-.033.933-.09 1.396H92.567c.357 3.004 2.116 4.308 4.471 4.308 2.177 0 3.578-.88 4.413-2.821l2.474 2.245c-1.461 2.397-4.114 3.52-6.976 3.52-4.89 0-7.99-3.429-7.99-8.314 0-4.884 3.28-8.464 7.781-8.464 4.562 0 7.424 3.307 7.424 8.13zm-3.697-1.152c0-2.428-1.401-4.036-3.786-4.036-2.028 0-3.667 1.305-4.085 4.036h7.871zm21.882 9.344h-3.399V20.92c-1.222 1.486-3.011 2.457-5.425 2.457-4.651 0-7.841-3.61-7.841-8.343 0-4.733 3.16-8.434 7.841-8.434 2.385 0 4.173.97 5.396 2.457V.623h3.428v22.3zm-8.198-2.73c2.802 0 4.889-2.094 4.889-5.158 0-3.064-2.087-5.28-4.889-5.28-2.922 0-4.919 2.216-4.919 5.28 0 3.004 1.997 5.158 4.919 5.158z"/></svg>