<svg xmlns="http://www.w3.org/2000/svg" width="118" height="34" fill="none"><path fill="#373737" d="M22.611 8.003c-.622.155-1.057.249-1.524.062-.342-.124-.622-.529-.87-.87l-4.2-5.755c-.248-.342-.528-.746-.87-.87-.436-.187-.902-.063-1.524.062L0 4.27v25.348l13.654-3.64c.622-.124 1.088-.248 1.524-.061.342.155.622.528.87.87l4.2 5.785c.248.343.528.716.87.871.436.156.902.062 1.524-.062l13.623-3.639V4.363L22.61 8.004zm24.571 7.153V7.443l4.416 7.713h2.27V4.364L51.755 5.39v6.47h-.032L47.43 4.364l-2.363 1.15v9.642h2.115zM61.364 4.364l-3.142 1.524-3.297 9.268h2.364l.747-2.239h4.012l.684 2.24h2.457L61.364 4.363zm-2.706 6.687 1.368-4.261h.031l1.338 4.26h-2.737zm46.809-6.687-3.142 1.524-3.296 9.268h2.363l.747-2.239h3.981l.684 2.24h2.457l-3.794-10.793zm-2.706 6.687 1.368-4.261h.031l1.338 4.26h-2.737zm-35.644-4.79v8.895h2.24V6.261h2.176l1.089-1.897H64.94l-1.09 1.897h3.266zm8.647-1.897-2.24 1.089v9.703h2.24V4.364zm6.687-.311h-.342l-3.732 1.835c-.653.84-1.12 2.084-1.12 3.857 0 5.07 3.763 5.691 5.194 5.691 1.43 0 5.194-.622 5.194-5.691 0-5.07-3.763-5.692-5.194-5.692zm0 9.455c-1.213 0-2.923-.746-2.923-3.763s1.71-3.764 2.923-3.764 2.924.747 2.924 3.764-1.71 3.763-2.924 3.763zm8.801-6.065 4.386 7.713h2.27V4.364L95.793 5.39v6.47h-.03L91.5 4.364l-2.395 1.15v9.642h2.115V7.443h.031zm21.398-3.079-2.27 1.089v9.703h6.5l1.12-1.96h-5.35V4.365zM52.313 23.896c.436-.218 1.338-.653 1.338-2.208 0-1.12-.684-2.768-3.328-2.768h-2.986l-2.27 1.12v9.672h4.572c2.208 0 2.799-.373 3.42-.964a3.2 3.2 0 0 0 .934-2.24c-.031-1.057-.373-2.114-1.68-2.612zm-5.1-3.11h2.581c1.027 0 1.649.28 1.649 1.15 0 .871-.716 1.213-1.587 1.213h-2.643v-2.363zm2.768 7.06h-2.768v-2.893h2.861c.809 0 1.617.374 1.617 1.307.031 1.12-.59 1.586-1.71 1.586zm17.603-5.816 4.385 7.682h2.27V18.92l-2.115 1.026v6.5h-.03l-4.262-7.526-2.395 1.15v9.642h2.115V22.03h.031zm-6.874-3.11-3.14 1.524-3.297 9.268h2.364l.746-2.24h3.981l.684 2.24h2.457L60.711 18.92zm-2.736 6.718 1.368-4.261h.032l1.337 4.26h-2.737zm21.46-.653 3.328 4.727h2.892l-4.634-6.376 4.386-4.416-3.484.622-3.546 3.763V18.92l-2.239 1.12v9.672h2.24v-3.639l1.057-1.088z"/></svg>