<svg xmlns="http://www.w3.org/2000/svg" width="118" height="24" fill="none"><path fill="#373737" d="M19.273 15.982c0 2.901-1.672 4.671-4.327 5.212-.737.148-1.966.148-2.802.148l-6.441-.05v2.459L0 19.08l5.703-4.67v2.457l7.228.05c.688 0 .983-.394.983-.787 0-.737-.688-.983-2.753-1.967C7.866 12.59 5.31 11.46 5.31 7.87c0-2.803 2.015-4.72 4.965-5.113.59-.099 1.721-.099 2.41-.099 1.475 0 5.605.099 5.605.099V7.23l-6.785-.099c-.59 0-.885.394-.885.787 0 .59.491.836 2.409 1.721 4.032 1.868 6.244 2.9 6.244 6.342zm10.67-.344c0 .836-.738 1.525-2.066 1.525-1.426 0-2.065-.689-2.065-1.525V2.708h-5.556V16.08c0 2.95 2.459 5.752 7.572 5.752 4.868 0 7.572-2.753 7.572-5.752V2.707h-5.458v12.931zm22.518.099c0 3.687-2.508 5.703-6.146 5.703H37.12V2.707h8.85c3.982 0 5.998 2.213 5.998 5.114 0 1.475-.688 2.753-2.065 3.687 1.622.885 2.556 2.262 2.556 4.229zm-9.883-5.605h2.557c.983 0 1.425-.689 1.425-1.672 0-1.033-.442-1.672-1.425-1.672h-2.557v3.344zm4.327 5.359c0-1.131-.541-1.77-1.525-1.77h-2.802v3.54h2.802c1.033 0 1.525-.688 1.525-1.77zM70.849 2.707h5.457v13.177c0 3.049-2.163 5.802-6.736 5.802-1.966 0-3.49-.59-4.572-1.475-1.082.885-2.557 1.475-4.376 1.475-4.867 0-6.883-2.753-6.883-5.802V2.707h5.457v13.079c0 .54.295 1.229 1.524 1.229 1.23 0 1.574-.64 1.574-1.23V2.708h5.457v13.079c0 .54.295 1.229 1.524 1.229 1.23 0 1.574-.64 1.574-1.23V2.708zm28.959 7.375V2.707H94.4v7.867c0 2.606 1.77 4.573 4.769 5.409v5.408h5.556v-5.408c3.048-.836 4.72-2.803 4.72-5.409v-2.9c0-.296.147-.443.442-.443h2.409v2.36L118 4.92 112.296.25v2.36h-3.786c-3.195 0-4.523 1.867-4.523 4.522v2.95c0 .689-.492 1.525-2.114 1.525-1.573 0-2.065-.836-2.065-1.524zm-6.785-2.015V21.44h-5.458v-5.458h-4.13v5.409h-5.457V8.067c0-3.344 2.753-5.9 7.522-5.9 4.72 0 7.523 2.507 7.523 5.9zm-5.458 3.638V8.362c0-.885-.639-1.525-2.065-1.525-1.475 0-2.065.64-2.065 1.525v3.343h4.13z"/></svg>